PathFileType   4   (X/Y/Z)
DataRate	CameraRate	NumFrames	NumMarkers	Units	OrigDataRate	OrigDataStartFrame	OrigNumFrames
120.0	120.0	9	37	mm	120.0	1	206
Frame#	Time	midhip	hip_r	hip_l	knee_r	knee_l	ankle_r	ankle_l	midasis	asis_r	asis_l	psis_r	psis_l	epicondLat_r	epicondLat_l	epicondMed_r	epicondMed_l	malleolusLat_r	malleolusLat_l	malleolusMedv_r	malleolusMedv_l	neck	subclavicle_r	subclavicle_l	sternalnotch	xyphoidprocess	thighwand_r	thighwand_l	upperleg1_r	upperleg1_l	upperleg2_r	upperleg2_l	shankwand_r	shankwand_l	lowerleg1_r	lowerleg1_l	toe_r	toe_l
 	 	X1	Y1	Z1	X2	Y2	Z2	X3	Y3	Z3	X4	Y4	Z4	X5	Y5	Z5	X6	Y6	Z6	X7	Y7	Z7	X8	Y8	Z8	X9	Y9	Z9	X10	Y10	Z10	X11	Y11	Z11	X12	Y12	Z12	X13	Y13	Z13	X14	Y14	Z14	X15	Y15	Z15	X16	Y16	Z16	X17	Y17	Z17	X18	Y18	Z18	X19	Y19	Z19	X20	Y20	Z20	X21	Y21	Z21	X22	Y22	Z22	X23	Y23	Z23	X24	Y24	Z24	X25	Y25	Z25	X26	Y26	Z26	X27	Y27	Z27	X28	Y28	Z28	X29	Y29	Z29	X30	Y30	Z30	X31	Y31	Z31	X32	Y32	Z32	X33	Y33	Z33	X34	Y34	Z34	X35	Y35	Z35	X36	Y36	Z36	X37	Y37	Z37

	1	0.15833	1398.256	620.669	-190.138	1386.821	629.489	-134.219	1420.455	637.545	-246.456	1325.212	333.361	-106.393	1504.183	346.735	-220.788	1100.726	133.104	-123.802	1509.431	55.196	-227.987	1439.982	698.607	-174.775	1414.514	692.508	-89.788	1465.450	704.707	-259.762	1299.141	705.410	-172.880	1322.482	705.078	-254.375	1302.504	341.761	-67.280	1507.028	343.335	-268.583	1345.976	320.490	-149.945	1490.566	347.198	-176.584	1090.369	142.057	-93.228	1503.158	55.870	-259.868	1106.388	137.922	-151.497	1503.440	56.521	-194.520	1333.157	1026.613	-224.931	1423.691	974.203	-156.911	1439.576	966.795	-246.132	1414.153	982.052	-197.394	1471.854	853.168	-181.994	1458.299	392.402	-71.512	1551.304	432.309	-324.018	1387.556	460.721	-71.413	1524.449	489.616	-249.195	1358.466	381.456	-71.266	1536.811	409.310	-224.182	1152.552	189.933	-17.889	1596.489	168.219	-193.358	1204.079	234.790	-75.011	1535.015	220.541	-218.408	1116.279	48.779	-131.713	1594.198	37.629	-217.762
	2	0.16667	1403.430	621.660	-190.974	1391.577	630.518	-135.153	1425.632	638.506	-247.268	1336.517	333.416	-104.478	1505.347	346.761	-221.332	1109.268	136.557	-125.317	1509.492	55.186	-228.233	1444.867	699.626	-175.557	1419.070	693.575	-90.629	1470.664	705.677	-260.485	1304.083	706.205	-173.894	1327.579	706.131	-255.361	1312.985	341.766	-65.844	1508.539	343.386	-269.107	1357.484	321.726	-149.139	1491.672	347.989	-176.545	1098.576	145.680	-94.908	1503.179	55.851	-260.107	1115.248	141.570	-152.917	1503.475	56.740	-194.751	1337.817	1027.776	-226.309	1428.834	975.800	-158.409	1444.357	968.083	-247.582	1419.109	983.404	-198.910	1477.170	854.782	-183.170	1467.651	395.213	-68.089	1554.377	432.174	-324.156	1401.145	462.781	-69.823	1527.384	489.934	-249.133	1368.668	380.923	-70.310	1538.875	409.670	-223.811	1160.099	192.475	-18.496	1597.089	167.766	-193.823	1213.067	236.766	-74.725	1535.789	220.578	-219.001	1124.650	51.663	-130.096	1594.106	37.614	-217.754
	3	0.17500	1408.512	622.596	-191.734	1396.255	631.516	-136.011	1430.641	639.420	-248.031	1347.869	333.669	-102.570	1506.146	346.739	-221.874	1118.027	140.159	-127.002	1509.559	55.184	-228.477	1449.620	700.621	-176.320	1423.552	694.629	-91.398	1475.688	706.613	-261.242	1308.859	706.934	-174.765	1332.420	707.101	-256.184	1323.633	341.897	-64.348	1509.983	343.463	-269.608	1373.296	319.348	-146.579	1492.807	348.114	-177.078	1107.134	149.267	-96.660	1503.203	55.832	-260.343	1124.744	145.030	-154.240	1503.617	56.941	-194.994	1342.412	1028.807	-227.615	1433.751	977.248	-159.776	1448.943	969.244	-248.931	1423.892	984.649	-200.280	1482.204	856.230	-184.263	1477.063	398.223	-65.044	1557.759	432.310	-323.924	1404.162	463.766	-68.803	1529.882	490.390	-248.302	1378.725	381.126	-68.519	1540.836	409.980	-223.271	1168.255	194.586	-19.189	1597.610	167.395	-194.265	1222.716	238.655	-74.499	1536.596	220.602	-219.529	1134.385	54.924	-127.928	1594.034	37.598	-217.779
	4	0.18333	1413.412	623.486	-192.379	1400.826	632.497	-136.771	1435.456	640.284	-248.724	1359.179	334.146	-100.721	1506.697	346.686	-222.436	1127.112	143.721	-128.803	1509.617	55.183	-228.716	1454.233	701.589	-177.049	1427.954	695.680	-92.093	1480.512	707.497	-262.005	1313.475	707.641	-175.494	1337.020	708.006	-256.854	1334.381	342.188	-62.821	1511.362	343.549	-270.105	1385.251	318.996	-143.360	1493.725	348.162	-177.874	1116.107	152.657	-98.450	1503.234	55.806	-260.576	1135.049	147.884	-155.616	1503.639	57.095	-195.292	1346.925	1029.734	-228.809	1438.434	978.462	-160.986	1453.529	970.260	-250.237	1428.496	985.780	-201.517	1487.032	857.451	-185.302	1486.554	401.441	-62.468	1561.291	432.627	-323.469	1412.140	465.148	-67.702	1532.497	490.855	-247.393	1388.739	382.279	-66.267	1542.750	410.172	-222.774	1176.980	196.264	-19.943	1598.046	167.093	-194.653	1232.769	240.329	-74.288	1537.315	220.553	-220.055	1145.372	58.392	-125.294	1593.981	37.578	-217.838
	5	0.19167	1418.083	624.348	-192.897	1405.273	633.479	-137.421	1440.067	641.098	-249.335	1370.367	334.854	-98.975	1507.091	346.615	-223.029	1136.646	147.018	-130.616	1509.653	55.179	-228.945	1458.704	702.532	-177.734	1432.275	696.745	-92.724	1485.133	708.319	-262.743	1317.941	708.362	-176.105	1341.406	708.863	-257.398	1345.158	342.652	-61.296	1512.653	343.630	-270.612	1397.212	319.170	-140.580	1494.378	348.291	-178.816	1125.565	155.685	-100.214	1503.268	55.770	-260.806	1146.227	149.967	-157.097	1503.599	57.265	-195.537	1351.382	1030.606	-229.989	1442.829	979.500	-161.996	1458.066	971.161	-251.355	1432.918	986.802	-202.654	1491.548	858.478	-186.140	1496.117	404.865	-60.396	1564.808	433.026	-322.925	1420.441	466.769	-66.788	1535.235	491.209	-246.665	1398.991	383.660	-64.333	1544.558	410.290	-222.432	1186.192	197.567	-20.714	1598.394	166.852	-194.970	1242.911	241.816	-74.078	1537.901	220.434	-220.576	1157.384	61.875	-122.309	1593.944	37.557	-217.926
	6	0.20000	1422.506	625.199	-193.288	1409.600	634.479	-137.957	1444.484	641.870	-249.858	1381.379	335.772	-97.362	1507.386	346.538	-223.659	1146.740	149.825	-132.313	1509.661	55.170	-229.164	1463.044	703.461	-178.372	1436.526	697.843	-93.308	1489.562	709.080	-263.437	1322.269	709.119	-176.628	1345.614	709.686	-257.855	1355.900	343.283	-59.807	1513.825	343.697	-271.140	1409.069	319.846	-138.179	1494.879	348.284	-179.930	1135.562	158.207	-101.865	1503.299	55.722	-261.030	1157.977	151.263	-158.511	1503.688	57.452	-195.635	1355.640	1031.476	-231.343	1446.974	980.451	-162.858	1462.402	971.960	-252.288	1437.170	987.730	-203.718	1495.733	859.380	-186.775	1505.712	408.475	-58.807	1568.169	433.429	-322.400	1428.915	468.694	-65.899	1537.824	491.409	-245.972	1409.395	385.115	-62.587	1546.190	410.294	-222.233	1195.789	198.594	-21.449	1598.655	166.665	-195.228	1253.262	242.949	-74.001	1538.354	220.268	-220.992	1170.197	65.197	-119.106	1593.917	37.537	-218.035
	7	0.20833	1426.722	626.064	-193.567	1413.829	635.510	-138.388	1448.733	642.609	-250.301	1392.192	336.867	-95.893	1507.616	346.470	-224.324	1157.462	151.955	-133.753	1509.643	55.159	-229.374	1467.272	704.392	-178.975	1440.728	698.993	-93.868	1493.816	709.791	-264.081	1326.473	709.923	-177.089	1349.683	710.482	-258.256	1366.559	344.062	-58.380	1514.848	343.752	-271.698	1420.866	320.933	-136.240	1495.504	348.030	-181.084	1146.124	160.114	-103.304	1503.315	55.668	-261.248	1170.111	151.802	-159.626	1503.806	57.595	-195.752	1359.742	1032.310	-232.723	1450.896	981.337	-163.687	1466.577	972.660	-253.211	1441.259	988.586	-204.722	1499.656	860.186	-187.333	1515.279	412.238	-57.640	1571.271	433.781	-321.973	1437.197	470.704	-64.979	1539.998	491.384	-245.525	1419.834	386.662	-61.060	1547.694	410.139	-222.191	1205.675	199.458	-22.087	1598.841	166.531	-195.467	1263.835	243.826	-73.941	1538.671	220.106	-221.328	1183.604	68.203	-115.809	1593.893	37.519	-218.158
	8	0.21667	1430.805	626.952	-193.776	1417.986	636.580	-138.726	1452.844	643.326	-250.676	1402.805	338.098	-94.567	1507.795	346.425	-225.019	1168.842	153.282	-134.811	1509.609	55.151	-229.579	1471.409	705.335	-179.553	1444.902	700.205	-94.422	1497.916	710.465	-264.683	1330.568	710.771	-177.515	1353.645	711.249	-258.624	1377.107	344.958	-57.036	1515.696	343.803	-272.292	1432.036	322.195	-134.426	1496.223	347.580	-182.401	1157.251	161.339	-104.430	1503.311	55.611	-261.460	1182.592	151.801	-160.329	1503.843	57.749	-195.977	1363.837	1033.062	-234.016	1454.616	982.199	-164.560	1470.637	973.325	-254.198	1445.185	989.391	-205.674	1503.382	860.958	-187.903	1524.754	416.109	-56.819	1574.051	434.050	-321.700	1445.686	472.866	-64.348	1541.710	491.234	-245.428	1430.022	388.369	-59.720	1549.033	409.899	-222.410	1215.784	200.255	-22.568	1598.969	166.449	-195.741	1274.622	244.593	-73.789	1538.975	219.985	-221.710	1197.467	70.773	-112.517	1593.866	37.506	-218.292
	9	0.22500	1434.816	627.869	-193.938	1422.094	637.685	-138.986	1456.838	644.025	-250.995	1413.231	339.429	-93.383	1507.931	346.421	-225.737	1180.866	153.739	-135.390	1509.573	55.150	-229.783	1475.471	706.295	-180.118	1449.063	701.476	-94.984	1501.878	711.114	-265.252	1334.565	711.649	-177.922	1357.527	711.982	-258.971	1387.532	345.940	-55.792	1516.355	343.862	-272.923	1442.552	323.578	-132.640	1496.485	347.443	-183.755	1168.921	161.848	-105.161	1503.280	55.557	-261.666	1195.333	151.384	-160.672	1503.825	57.930	-196.222	1367.803	1033.822	-235.321	1458.279	983.074	-165.430	1474.547	973.965	-255.131	1448.957	990.156	-206.588	1506.999	861.726	-188.429	1534.081	420.038	-56.277	1576.473	434.230	-321.624	1454.518	475.221	-63.930	1543.542	491.202	-245.454	1439.957	390.152	-58.479	1550.132	409.642	-222.769	1226.088	201.033	-22.840	1599.061	166.419	-196.103	1285.571	245.249	-73.571	1539.203	219.922	-222.145	1211.705	72.819	-109.298	1593.832	37.499	-218.434
